<svg xmlns="http://www.w3.org/2000/svg" width="85" height="21" viewBox="0 0 85 21" fill="none">
<g clip-path="url(#clip0_977_7491)">
<path d="M20.8838 8.09798H10.7893C10.7549 8.09798 10.722 8.08445 10.6977 8.06037C10.6734 8.03629 10.6597 8.00363 10.6597 7.96954V0.432993C10.6597 0.0297684 10.1517 -0.152881 9.89158 0.157041L0.101521 11.8191C0.0487137 11.8821 0.015072 11.9587 0.00453288 12.04C-0.00600623 12.1213 0.00699332 12.2039 0.04201 12.2781C0.0770267 12.3523 0.132612 12.4151 0.20226 12.459C0.271907 12.503 0.352736 12.5264 0.435286 12.5265H10.5303C10.5646 12.5265 10.5975 12.5401 10.6218 12.5642C10.646 12.5884 10.6597 12.621 10.6597 12.6551V20.1917C10.6597 20.5951 11.1678 20.7778 11.428 20.4679L21.218 8.80577C21.271 8.74276 21.3048 8.66606 21.3154 8.58467C21.326 8.50327 21.313 8.42057 21.2779 8.34626C21.2428 8.27194 21.1871 8.20911 21.1173 8.16513C21.0475 8.12116 20.9665 8.09786 20.8838 8.09798Z" fill="#CBF200"/>
<path d="M28.7939 20.0414V7.31411C28.7939 7.15983 28.8557 7.01188 28.9656 6.90279C29.0755 6.79371 29.2245 6.73242 29.3799 6.73242H32.6613C32.8167 6.73242 32.9658 6.79371 33.0757 6.90279C33.1855 7.01188 33.2473 7.15983 33.2473 7.31411V20.0414C33.2473 20.1957 33.1855 20.3436 33.0757 20.4527C32.9658 20.5618 32.8167 20.6231 32.6613 20.6231H29.3799C29.2245 20.6231 29.0755 20.5618 28.9656 20.4527C28.8557 20.3436 28.7939 20.1957 28.7939 20.0414Z" fill="black"/>
<path d="M28.7939 3.82055V0.602904C28.7939 0.523869 28.8096 0.445602 28.84 0.372574C28.8705 0.299546 28.9151 0.233188 28.9714 0.177291C29.0277 0.121394 29.0945 0.0770527 29.1681 0.0468001C29.2416 0.0165476 29.3204 0.000976557 29.4001 0.000976563L32.6433 0.000976563C32.8041 0.000976563 32.9583 0.0643938 33.072 0.177277C33.1857 0.290161 33.2496 0.443263 33.2496 0.602904V3.82055C33.2495 3.98005 33.1856 4.13298 33.0719 4.24572C32.9583 4.35846 32.8042 4.42178 32.6435 4.42178H29.4003C29.2396 4.42178 29.0855 4.35846 28.9718 4.24573C28.8581 4.133 28.7941 3.98007 28.7939 3.82055V3.82055Z" fill="black"/>
<path d="M47.7041 20.363L44.5591 15.058C44.5548 15.0507 44.5487 15.0446 44.5414 15.0402C44.5341 15.0358 44.5259 15.0333 44.5173 15.0329C44.5088 15.0325 44.5004 15.0342 44.4927 15.0378C44.485 15.0415 44.4783 15.047 44.4733 15.0538L40.5605 20.4065C40.5102 20.4736 40.4448 20.5282 40.3696 20.5659C40.2944 20.6037 40.2114 20.6236 40.1271 20.624H37.5723C37.4169 20.624 37.2678 20.5628 37.158 20.4537C37.0481 20.3446 36.9863 20.1966 36.9863 20.0424V0.582662C36.9863 0.428389 37.0481 0.280435 37.158 0.171348C37.2678 0.0622611 37.4169 0.000976563 37.5723 0.000976563L40.8537 0.000976562C41.0091 0.000976563 41.1581 0.0622611 41.268 0.171348C41.3779 0.280435 41.4397 0.428389 41.4397 0.582662V13.0449C41.4399 13.0557 41.4435 13.0662 41.4501 13.0748C41.4567 13.0834 41.4659 13.0897 41.4763 13.0928C41.4868 13.0959 41.4979 13.0956 41.5082 13.0919C41.5185 13.0883 41.5273 13.0815 41.5334 13.0726L47.041 4.65911C47.0896 4.58504 47.156 4.52414 47.2343 4.48194C47.3125 4.43973 47.4001 4.41754 47.4892 4.41736H51.4578C51.5569 4.417 51.6542 4.44392 51.7388 4.49514C51.8234 4.54636 51.8921 4.61987 51.9372 4.70751C51.9822 4.79514 52.002 4.89346 51.9941 4.99155C51.9863 5.08964 51.9512 5.18365 51.8928 5.26314L47.5785 11.1265C47.5726 11.1344 47.5692 11.1438 47.5686 11.1536C47.5681 11.1634 47.5703 11.1731 47.5752 11.1817L52.5256 19.8267C52.5721 19.9072 52.5964 19.9984 52.5962 20.0911C52.596 20.1839 52.5712 20.275 52.5243 20.3553C52.4775 20.4355 52.4102 20.5022 52.3292 20.5485C52.2482 20.5948 52.1564 20.6192 52.063 20.6192H48.1661C48.0732 20.6205 47.9816 20.5976 47.9005 20.5526C47.8193 20.5076 47.7516 20.4422 47.7041 20.363V20.363Z" fill="black"/>
<path d="M60.2013 20.8414C55.9744 20.8414 53.0234 17.3962 53.0234 12.4675C53.0234 7.53872 55.9744 4.09375 60.2013 4.09375C61.9638 4.09375 63.5853 4.83831 64.8855 6.23901L64.9759 6.33626C64.9826 6.34392 64.9913 6.34944 65.0011 6.35213C65.0109 6.35481 65.0213 6.35454 65.0309 6.35134C65.0405 6.34814 65.049 6.34217 65.0552 6.33418C65.0614 6.32619 65.0651 6.31655 65.0657 6.30648L65.0765 6.15966V6.15617C65.0765 5.80833 65.1107 5.30203 65.14 4.90648C65.15 4.77353 65.2102 4.64924 65.3087 4.5586C65.4072 4.46795 65.5366 4.41768 65.6709 4.41787H68.7648C68.9202 4.41787 69.0692 4.47915 69.1791 4.58824C69.289 4.69732 69.3508 4.84528 69.3508 4.99955V20.0368C69.3508 20.1911 69.289 20.339 69.1791 20.4481C69.0692 20.5572 68.9202 20.6185 68.7648 20.6185H65.6751C65.5396 20.6196 65.4087 20.5695 65.3091 20.4782C65.2095 20.387 65.1486 20.2615 65.1388 20.1273C65.1095 19.6887 65.0709 19.125 65.0709 18.8825C65.0709 18.8814 65.0709 18.8802 65.0709 18.879L65.0556 18.6929C65.0549 18.6831 65.0513 18.6738 65.0454 18.666C65.0394 18.6583 65.0313 18.6524 65.022 18.649C65.0128 18.6457 65.0027 18.6451 64.9932 18.6473C64.9836 18.6495 64.9748 18.6545 64.968 18.6615L64.8761 18.7545C63.571 20.1215 61.9484 20.8414 60.2013 20.8414ZM65.0624 11.053C64.9429 10.2943 64.5894 9.56392 63.9812 9.04273C63.2808 8.43436 62.3805 8.10106 61.4498 8.10552C59.0795 8.10552 57.4264 9.91735 57.4264 12.5121C57.4264 15.3147 58.8922 16.919 61.4498 16.919C61.9663 16.9204 62.478 16.8215 62.9562 16.6279C64.1258 16.1495 64.9002 15.0864 65.0657 13.9075L65.1126 13.5885C65.2208 12.8447 65.2172 12.0892 65.102 11.3464L65.0624 11.053Z" fill="black"/>
<path d="M77.9779 21.0014C75.4604 21.0014 73.8584 20.4796 72.9574 20.0398C72.6061 19.8714 72.2733 19.6674 71.9643 19.4311C71.869 19.3537 71.8038 19.2458 71.7797 19.1259C71.7557 19.006 71.7744 18.8816 71.8326 18.7738L73.0982 16.411C73.1345 16.3439 73.1849 16.2853 73.246 16.2392C73.3071 16.1932 73.3776 16.1608 73.4525 16.1443C73.5274 16.1278 73.605 16.1275 73.68 16.1435C73.7551 16.1595 73.8257 16.1914 73.8872 16.237C75.4744 17.3871 77.2375 17.5223 77.9774 17.5223C79.4627 17.5223 80.2808 16.9811 80.2808 16.0004C80.2808 14.7246 79.0385 14.4251 77.4709 14.0482C77.3202 14.0142 77.1691 13.9756 77.0183 13.937C74.9339 13.42 72.1633 12.386 72.1633 9.36123C72.1633 7.8293 72.8449 6.51516 74.1354 5.5584C75.3722 4.64027 77.0863 4.1377 78.9659 4.1377C81.688 4.1377 83.5919 5.03652 84.4345 5.53374C84.5518 5.60299 84.6378 5.71421 84.675 5.84453C84.7121 5.97486 84.6976 6.11435 84.6342 6.23432L83.4607 8.48614C83.32 8.75186 82.9832 8.8533 82.7252 8.70346C81.1768 7.82418 79.8474 7.62595 78.9659 7.62595C78.3426 7.62595 76.8819 7.62595 76.8819 9.04177C76.8819 10.1095 77.778 10.3126 78.9124 10.5735C79.2825 10.6605 79.7063 10.7522 80.1397 10.8876C81.5954 11.3369 84.9992 12.3951 84.9992 15.5746C84.9992 17.0869 84.3176 18.4641 83.0807 19.45C81.7907 20.4554 80.0281 21.0014 77.9779 21.0014Z" fill="black"/>
</g>
<defs>
<clipPath id="clip0_977_7491">
<rect width="85" height="21" fill="white"/>
</clipPath>
</defs>
</svg>